<?xml version="1.0" encoding="utf-8"?>
<svg viewBox="139.532 171.291 246.119 70.787" xmlns="http://www.w3.org/2000/svg">
  <g>
    <g transform="matrix(1, 0, 0, 1, 139.531189, 171.287827)">
      <path class="cls-1" d="M.21,49.7c.48,3.51,1.76,6.79,3.65,9.65-.02-.34-.02-.68,0-1.07-.02-.87-.02-1.69,0-2.48-.02-.88-.02-1.7,0-2.51-.02-.88-.02-1.7,0-2.51-.02-.88-.02-1.7,0-2.51-.02-.89-.02-1.71,0-2.51-.01-.68-.02-1.56,0-2.45-.03-1.05,.04-1.87,.22-2.67l.02-.07,.02-.07c.03-.1,.05-.2,.08-.29,.06-.21,.11-.43,.18-.64,.27-.83,.68-1.65,1.31-2.57l.09-.14,.11-.12c.12-.13,.23-.26,.34-.39,.39-.46,.88-1.04,1.6-1.49l.21-.14c.45-.32,1.02-.71,1.72-.98,.12-.05,.25-.1,.38-.15,0-.02,.02-.05,.03-.07,.1-.26,.21-.51,.3-.78l.03-.09,.04-.08c.19-.42,.35-.86,.53-1.33,.17-.46,.34-.91,.53-1.36l.04-.1,.06-.1s.07-.2,.1-.32c.06-.2,.12-.4,.19-.6l.07-.19,.1-.17c.13-.22,.24-.56,.36-.91l.04-.12c.12-.32,.25-.63,.38-.95,.18-.45,.36-.88,.49-1.29C4.3,29.76-1.16,39.66,.21,49.7Z" style="fill: rgb(26, 26, 26);"/>
      <path class="cls-1" d="M52.56,66.04v-.07s-.02-.07-.02-.07c-.07-.72-.06-1.4-.05-2.05v-.54c0-.39,0-.79,0-1.19-.32,0-.64,0-.96-.01-.43,.01-.85,.02-1.28,.02s-.81,0-1.22-.01c-.43,0-.85,.01-1.28,.01s-.82,0-1.23-.01c-.43,0-.85,.01-1.28,.01s-.82,0-1.23-.01c-.43,0-.85,.01-1.28,.01s-.82,0-1.23-.01c-.43,0-.85,.01-1.28,.01s-.82,0-1.23-.01c-.43,0-.85,.01-1.28,.01s-.82,0-1.23-.01c-.43,0-.85,.01-1.28,.01s-.82,0-1.23-.01c-.43,0-.85,.01-1.28,.01s-.82,0-1.23-.01c-.43,0-.85,.01-1.28,.01s-.82,0-1.23-.01c-.43,0-.86,.01-1.28,.01s-.82,0-1.22-.01c-.43,0-.86,.01-1.28,.01-.41,0-.81,0-1.22-.02-.32,0-.64,.01-.97,.01,0,.41,0,.82-.01,1.24,0,.14,0,.34,0,.54,0,.63,.02,1.29-.05,1.99v.08s-.02,.08-.02,.08c-.18,1.05-.41,2.34-1.29,3.52-.15,.19-.31,.38-.48,.56,.27,.04,.54,.07,.82,.1H54.43c-.19-.19-.37-.39-.55-.61-.93-1.26-1.16-2.59-1.32-3.57Z" style="fill: rgb(26, 26, 26);"/>
      <path class="cls-1" d="M8.87,63.36v-.05c0-.42-.01-.82-.01-1.2-.02,0-.37,0-.56,0-.26,0-.53,.01-.79,.01-.52,0-.96-.02-1.37-.07l-.13-.02-.11-.03c.91,1.03,1.91,1.99,2.98,2.86-.02-.53-.01-1.04,0-1.51Z" style="fill: rgb(26, 26, 26);"/>
      <path class="cls-1" d="M83.66,23.27c-1-1.82-3.43-5.64-8.14-8.38-6.34-3.69-12.58-2.96-14.48-2.66C56.17,3.14,45.9-1.63,36.07,.51c-8.12,1.77-14.5,7.95-16.87,15.77,.05-.03,.11-.06,.16-.09,.48-.24,.95-.47,1.49-.64,.78-.29,1.52-.35,2.12-.39,.24-.02,.47-.03,.71-.07l.13-.02c.41-.04,.86-.06,1.39-.06,.24,0,.48,0,.72,0h.54c.38,0,.82,0,1.26,0,.41,0,.82,0,1.23,.01,.43,0,.86-.01,1.28-.01s.81,0,1.22,.01c.43,0,.86-.01,1.28-.01s.82,0,1.22,.01c.43,0,.86-.01,1.28-.01s.82,0,1.22,.01c.43,0,.86-.01,1.28-.01s.82,0,1.22,.01c.43,0,.86-.01,1.28-.01s.82,0,1.22,.01c.43,0,.86-.01,1.28-.01s.82,0,1.22,.01c.43,0,.86-.01,1.28-.01s.82,0,1.22,.01c.43,0,.85-.01,1.28-.01s.82,0,1.22,.02h.44c.28-.01,.57-.01,.85-.01,.43,0,.85,0,1.28,.04h.11s.11,.03,.11,.03c.25,.05,.51,.07,.76,.1,.61,.06,1.3,.13,2.04,.38l.08,.03,.08,.03c.12,.05,.25,.1,.37,.15,.3,.12,.64,.26,.99,.44l.1,.05,.09,.06c.1,.07,.21,.13,.32,.19,.39,.22,.91,.53,1.39,1.03l.11,.11c.51,.51,1.14,1.14,1.61,2,.57,.92,.92,1.89,1.23,2.74,.16,.44,.31,.86,.48,1.24,.11,.24,.2,.48,.3,.73,.07,.17,.13,.34,.21,.51l.04,.1,.03,.1c.12,.38,.28,.78,.45,1.2,.16,.39,.32,.79,.45,1.19,.09,.24,.2,.51,.31,.79,.13,.33,.26,.65,.38,.98l.03,.08,.02,.08c.03,.11,.08,.22,.13,.33l.09,.2c.18,.43,.34,.86,.5,1.29,.15,.4,.3,.8,.46,1.19,.1,.26,.19,.49,.27,.72,.06,.16,.12,.33,.18,.49,.16,.06,.32,.12,.48,.18,.76,.31,1.41,.78,1.93,1.15,.88,.64,1.53,1.41,1.99,2,.57,.77,1.01,1.61,1.37,2.59,.09,.26,.15,.49,.21,.72,.02,.09,.09,.34,.09,.34l.02,.07c.18,.81,.25,1.68,.22,2.66,.02,.75,.02,1.56,0,2.45,.02,.86,.02,1.7,0,2.5,.02,.88,.02,1.71,0,2.51,.02,.88,.02,1.71,0,2.51,.02,.88,.02,1.71,0,2.51,.02,.88,.02,1.69,0,2.48,.02,.45,.02,.85-.01,1.23-.14,1.85-1.53,2.37-1.95,2.48l-.14,.04-.14,.02c-.42,.05-.87,.08-1.41,.08-.25,0-.51,0-.76-.01-.2,0-.59,0-.59,0,0,.4,0,.8-.01,1.19v.23c.02,.85,.03,1.81-.14,2.81-.04,.58-.21,1.06-.33,1.42l-.06,.18c-.19,.56-.44,.99-.64,1.34l-.17,.29-.11,.14c-.15,.18-.31,.35-.47,.52h17.96c11.31-1.8,19.81-11.42,20.19-22.77,.38-11.55-7.75-21.85-19.18-24.18Z" style="fill: rgb(26, 26, 26);"/>
      <path class="cls-1" d="M52.19,25.12c-.22-.57-.36-.69-.36-.69,0,0-.17-.09-.87-.09h-13.26s-13.26,0-13.26,0c-.87,0-.87,.01-1.14,.72-.65,1.72-1.3,3.45-1.94,5.18-.37,1.01-.75,2.01-1.12,3.01,7.76,0,15.52,0,23.27,0h11.71s-.08-.21-.08-.21c-.98-2.64-1.96-5.28-2.96-7.91Z" style="fill: rgb(6, 26, 26);"/>
    </g>
    <path class="cls-2" d="M 203.061 239.648 C 203.261 239.298 203.481 238.948 203.611 238.568 C 203.741 238.178 203.901 237.798 203.901 237.378 C 204.081 236.448 204.051 235.508 204.031 234.578 C 204.051 233.768 204.051 232.958 204.031 232.158 C 204.051 231.584 204.348 231.294 204.921 231.288 C 205.341 231.288 205.751 231.288 206.171 231.288 C 206.991 231.288 207.821 231.358 208.641 231.248 C 208.961 231.158 209.021 230.908 209.041 230.628 C 209.071 230.278 209.061 229.938 209.041 229.588 C 209.061 228.748 209.061 227.918 209.041 227.078 C 209.061 226.238 209.061 225.408 209.041 224.568 C 209.061 223.728 209.061 222.898 209.041 222.058 C 209.061 221.218 209.061 220.388 209.041 219.548 C 209.061 218.718 209.061 217.878 209.041 217.048 C 209.061 216.228 209.061 215.408 209.041 214.588 C 209.071 213.848 209.041 213.118 208.871 212.398 C 208.791 212.108 208.731 211.818 208.631 211.538 C 208.371 210.818 208.031 210.128 207.571 209.508 C 207.121 208.918 206.631 208.368 206.021 207.928 C 205.531 207.578 205.051 207.228 204.491 207.008 C 204.161 206.868 203.821 206.768 203.491 206.658 C 203.241 206.548 203.151 206.318 203.051 206.088 C 202.821 205.558 202.651 205.008 202.441 204.478 C 202.101 203.658 201.811 202.818 201.471 201.988 C 201.371 201.738 201.251 201.488 201.171 201.228 C 200.951 200.618 200.691 200.028 200.461 199.428 C 200.181 198.608 199.801 197.818 199.541 196.988 C 199.371 196.588 199.221 196.178 199.041 195.778 C 198.491 194.528 198.171 193.168 197.431 191.998 C 197.081 191.318 196.531 190.808 196.001 190.278 C 195.621 189.878 195.121 189.658 194.671 189.368 C 194.271 189.158 193.851 189.018 193.451 188.838 C 192.641 188.558 191.781 188.588 190.951 188.438 C 190.141 188.378 189.331 188.408 188.511 188.418 C 187.681 188.398 186.851 188.398 186.011 188.418 C 185.171 188.398 184.341 188.398 183.501 188.418 C 182.661 188.398 181.831 188.398 180.991 188.418 C 180.151 188.398 179.321 188.398 178.481 188.418 C 177.641 188.398 176.811 188.398 175.971 188.418 C 175.131 188.398 174.301 188.398 173.461 188.418 C 172.621 188.398 171.791 188.398 170.951 188.418 C 170.111 188.398 169.281 188.398 168.441 188.418 C 167.611 188.398 166.781 188.398 165.951 188.418 C 165.141 188.418 164.331 188.368 163.521 188.458 C 162.691 188.598 161.831 188.528 161.031 188.838 C 160.601 188.968 160.201 189.168 159.811 189.368 C 159.271 189.638 158.771 189.958 158.351 190.398 C 157.861 190.868 157.401 191.368 157.051 191.958 C 156.551 192.728 156.321 193.618 155.941 194.438 C 155.911 194.498 155.891 194.548 155.871 194.608 C 155.541 195.398 155.291 196.228 154.931 197.008 C 154.671 197.828 154.311 198.608 154.001 199.418 C 153.841 199.888 153.691 200.368 153.431 200.798 C 153.281 201.208 153.221 201.648 153.001 202.028 C 152.621 202.928 152.331 203.858 151.931 204.758 C 151.831 205.048 151.711 205.338 151.601 205.628 C 151.451 206.008 151.421 206.448 151.001 206.678 C 150.661 206.788 150.321 206.898 150.001 207.028 C 149.441 207.248 148.961 207.608 148.471 207.948 C 147.831 208.348 147.411 208.978 146.911 209.508 C 146.481 210.148 146.101 210.818 145.861 211.558 C 145.771 211.848 145.701 212.138 145.621 212.428 C 145.461 213.148 145.431 213.888 145.461 214.628 C 145.431 215.448 145.441 216.268 145.461 217.088 C 145.441 217.918 145.441 218.758 145.461 219.588 C 145.441 220.428 145.441 221.258 145.461 222.098 C 145.441 222.938 145.441 223.768 145.461 224.608 C 145.441 225.448 145.441 226.278 145.461 227.118 C 145.441 227.958 145.441 228.788 145.461 229.628 C 145.441 229.978 145.441 230.318 145.461 230.668 C 145.481 230.948 145.561 231.198 145.871 231.278 C 146.691 231.378 147.521 231.318 148.341 231.318 C 148.761 231.318 149.171 231.318 149.591 231.318 C 150.158 231.318 150.448 231.611 150.461 232.198 C 150.441 233.008 150.441 233.818 150.461 234.618 C 150.441 235.558 150.421 236.498 150.591 237.428 C 150.591 237.708 150.671 237.968 150.761 238.238 C 150.941 238.748 151.171 239.228 151.431 239.688 C 151.681 240.018 151.961 240.328 152.291 240.568 C 152.761 240.908 153.181 241.378 153.821 241.418 C 154.021 241.418 154.221 241.438 154.391 241.548 L 156.151 241.548 C 156.921 241.448 157.671 241.278 158.291 240.768 C 158.691 240.418 159.081 240.048 159.411 239.638 C 159.991 238.858 160.151 237.938 160.311 237.008 C 160.391 236.218 160.341 235.428 160.341 234.628 C 160.361 233.828 160.361 233.038 160.341 232.238 C 160.341 231.644 160.568 231.341 161.021 231.328 C 161.821 231.348 162.631 231.348 163.431 231.328 C 164.261 231.348 165.091 231.348 165.931 231.328 C 166.771 231.348 167.601 231.348 168.441 231.328 C 169.281 231.348 170.111 231.348 170.951 231.328 C 171.791 231.348 172.621 231.348 173.461 231.328 C 174.301 231.348 175.131 231.348 175.971 231.328 C 176.811 231.348 177.641 231.348 178.481 231.328 C 179.321 231.348 180.151 231.348 180.991 231.328 C 181.831 231.348 182.661 231.348 183.501 231.328 C 184.341 231.348 185.171 231.348 186.011 231.328 C 186.851 231.348 187.681 231.348 188.521 231.328 C 189.351 231.348 190.181 231.348 191.021 231.328 C 191.821 231.348 192.631 231.348 193.431 231.328 C 193.885 231.354 194.108 231.664 194.101 232.258 C 194.081 233.058 194.081 233.848 194.101 234.648 C 194.101 235.438 194.061 236.228 194.131 237.018 C 194.281 237.938 194.451 238.858 195.031 239.638 C 195.351 240.058 195.741 240.408 196.131 240.758 C 196.691 241.208 197.351 241.398 198.041 241.548 L 199.801 241.548 C 200.201 241.398 200.661 241.498 201.051 241.288 C 201.841 240.928 202.471 240.358 203.021 239.698 L 203.061 239.648 Z M 155.581 220.798 C 153.201 220.768 151.241 218.728 151.241 216.278 C 151.241 213.818 153.221 211.788 155.621 211.788 C 155.621 211.788 155.651 211.788 155.661 211.788 C 158.071 211.808 159.991 213.808 159.991 216.298 C 159.991 218.788 157.981 220.848 155.591 220.808 L 155.581 220.798 Z M 157.401 206.648 C 156.921 206.648 156.741 206.618 156.951 206.058 C 158.271 202.578 159.551 199.078 160.871 195.588 C 161.471 194.018 162.291 193.508 163.981 193.508 C 172.821 193.508 181.661 193.508 190.501 193.508 C 192.291 193.508 193.051 193.978 193.691 195.648 C 195.041 199.188 196.351 202.738 197.671 206.288 C 197.701 206.378 197.701 206.488 197.731 206.638 L 197.211 206.638 C 183.941 206.638 170.671 206.638 157.401 206.638 L 157.401 206.648 Z M 198.901 220.798 C 196.511 220.778 194.561 218.758 194.551 216.288 C 194.551 213.778 196.491 211.778 198.921 211.778 C 198.921 211.778 198.921 211.778 198.921 211.778 C 201.311 211.778 203.271 213.798 203.281 216.268 C 203.281 218.738 201.271 220.828 198.891 220.798 L 198.901 220.798 Z" style="fill: rgb(26, 26, 26);"/>
    <g transform="matrix(1, 0, 0, 1, 139.531189, 171.287827)">
      <path class="cls-2" d="M141.48,33.64h-.67c-1.3,0-2.23,.57-2.91,1.66l-11.07,17.3-11.01-17.25c-.62-.99-1.56-1.71-2.96-1.71h-.68c-1.82,0-3.22,1.45-3.22,3.22v30.5c0,1.77,1.35,3.12,3.12,3.12s3.17-1.35,3.17-3.12v-21.77l8.83,13.25c.68,1.04,1.51,1.66,2.65,1.66s2.03-.62,2.7-1.66l8.88-13.35v21.82c0,1.71,1.46,3.17,3.17,3.17,1.82,0,3.22-1.4,3.22-3.17v-30.45c0-1.77-1.4-3.22-3.22-3.22Z" style="fill: rgb(26, 26, 26);"/>
      <path class="cls-2" d="M154.72,42.47c-1.77,0-3.12,1.4-3.12,3.17v21.72c0,1.77,1.4,3.12,3.12,3.12s3.17-1.35,3.17-3.12v-21.72c0-1.77-1.4-3.17-3.17-3.17Z" style="fill: rgb(26, 26, 26);"/>
      <path class="cls-2" d="M154.72,32.34c-2.03,0-3.58,1.19-3.58,3.07v.31c0,1.87,1.56,3.12,3.58,3.12s3.58-1.25,3.58-3.12v-.31c0-1.87-1.56-3.07-3.58-3.07Z" style="fill: rgb(26, 26, 26);"/>
      <path class="cls-2" d="M175.09,54.01c-3.22-1.04-6.18-1.87-6.18-3.9v-.1c0-1.56,1.4-2.7,3.84-2.7,1.92,0,4.21,.73,6.44,1.87,.42,.21,.73,.31,1.25,.31,1.45,0,2.6-1.09,2.6-2.55,0-1.09-.62-1.92-1.51-2.39-2.65-1.4-5.71-2.23-8.62-2.23-5.46,0-9.77,3.17-9.77,8.36v.1c0,5.25,4.52,6.91,8.57,8.05,3.22,.99,6.13,1.71,6.13,3.84v.1c0,1.82-1.56,2.96-4.26,2.96-2.49,0-5.25-.88-7.9-2.65-.36-.21-.83-.36-1.35-.36-1.46,0-2.55,1.14-2.55,2.55,0,1.04,.52,1.82,1.19,2.18,3.17,2.18,6.96,3.27,10.44,3.27,5.72,0,10.18-2.86,10.18-8.62v-.1c0-4.94-4.52-6.75-8.52-8Z" style="fill: rgb(26, 26, 26);"/>
      <path class="cls-2" d="M198.52,54.01c-3.22-1.04-6.18-1.87-6.18-3.9v-.1c0-1.56,1.4-2.7,3.84-2.7,1.92,0,4.21,.73,6.44,1.87,.42,.21,.73,.31,1.25,.31,1.45,0,2.6-1.09,2.6-2.55,0-1.09-.62-1.92-1.51-2.39-2.65-1.4-5.71-2.23-8.62-2.23-5.46,0-9.77,3.17-9.77,8.36v.1c0,5.25,4.52,6.91,8.57,8.05,3.22,.99,6.13,1.71,6.13,3.84v.1c0,1.82-1.56,2.96-4.26,2.96-2.49,0-5.25-.88-7.9-2.65-.36-.21-.83-.36-1.35-.36-1.46,0-2.55,1.14-2.55,2.55,0,1.04,.52,1.82,1.19,2.18,3.17,2.18,6.96,3.27,10.44,3.27,5.72,0,10.18-2.86,10.18-8.62v-.1c0-4.94-4.52-6.75-8.52-8Z" style="fill: rgb(26, 26, 26);"/>
      <path class="cls-2" d="M222.31,42.42c-3.58,0-6.23,.62-8.83,1.61-.94,.36-1.71,1.35-1.71,2.49,0,1.45,1.2,2.6,2.65,2.6,.31,0,.62-.05,.99-.16,1.71-.68,3.69-1.09,6.08-1.09,4.42,0,6.81,2.08,6.81,5.98v.68c-2.13-.68-4.31-1.14-7.38-1.14-6.7,0-11.33,2.91-11.33,8.83v.1c0,5.51,4.57,8.47,9.72,8.47,4.21,0,7.07-1.77,8.94-4v1.04c0,1.4,1.25,2.65,3.07,2.65,1.71,0,3.07-1.3,3.07-3.01v-13.51c0-3.58-.93-6.49-2.96-8.47-1.92-1.97-4.99-3.07-9.09-3.07Zm6.08,17.92c0,3.48-3.17,5.87-7.33,5.87-3.01,0-5.35-1.51-5.35-4.16v-.1c0-2.86,2.39-4.57,6.44-4.57,2.49,0,4.62,.47,6.24,1.09v1.87Z" style="fill: rgb(26, 26, 26);"/>
      <path class="cls-2" d="M245.62,42.14h-.13c-.22,0-.36,.09-.47,.27l-1.7,2.68-1.67-2.68c-.09-.15-.25-.27-.49-.27h-.13c-.29,0-.53,.24-.53,.53v4.7c0,.29,.24,.51,.53,.51,.27,0,.51-.22,.51-.51v-3.24l1.32,2.01c.13,.18,.25,.27,.45,.27,.22,0,.34-.11,.45-.27l1.32-2.03v3.26c0,.29,.24,.51,.51,.51,.29,0,.53-.22,.53-.51v-4.7c0-.29-.24-.53-.51-.53Z" style="fill: rgb(26, 26, 26);"/>
      <path class="cls-2" d="M238.93,42.19h-3.75c-.25,0-.47,.22-.47,.49,0,.25,.22,.49,.47,.49h1.34v4.17c0,.29,.24,.53,.53,.53,.31,0,.54-.24,.54-.53v-4.17h1.34c.25,0,.47-.24,.47-.49,0-.27-.22-.49-.47-.49Z" style="fill: rgb(26, 26, 26);"/>
    </g>
  </g>
</svg>